<?xml version="1.0" standalone="no"?>
<!DOCTYPE svg PUBLIC "-//W3C//DTD SVG 20010904//EN"
 "http://www.w3.org/TR/2001/REC-SVG-20010904/DTD/svg10.dtd">
<svg version="1.0" xmlns="http://www.w3.org/2000/svg"
 width="625.000000pt" height="625.000000pt" viewBox="0 0 625.000000 625.000000"
 preserveAspectRatio="xMidYMid meet">
<metadata>
Created by potrace 1.11, written by Peter Selinger 2001-2013
</metadata>
<g transform="translate(0.000000,625.000000) scale(0.100000,-0.100000)"
fill="#000000" stroke="none">
<path d="M3074 6093 c-28 -48 -83 -144 -122 -213 -40 -69 -76 -132 -82 -140
-5 -8 -19 -32 -30 -52 -16 -29 -27 -38 -48 -39 -15 0 -34 -2 -42 -4 -8 -1 -35
-6 -60 -10 -78 -11 -192 -35 -270 -56 -41 -12 -82 -22 -90 -24 -47 -10 -241
-84 -342 -130 -214 -96 -421 -225 -613 -380 -97 -78 -285 -261 -344 -335 -20
-24 -44 -54 -54 -65 -38 -41 -163 -221 -224 -324 -75 -123 -151 -278 -201
-406 -32 -84 -107 -319 -116 -368 -2 -12 -9 -42 -14 -67 -6 -25 -13 -65 -17
-90 -3 -25 -10 -70 -16 -100 -22 -127 -30 -444 -16 -620 7 -76 19 -169 33
-240 2 -14 7 -41 10 -60 20 -126 134 -494 167 -537 12 -16 1 -59 -24 -94 -10
-15 -19 -30 -19 -33 0 -4 -11 -23 -23 -44 -13 -20 -76 -127 -139 -237 -63
-110 -165 -286 -225 -391 -61 -105 -118 -204 -127 -222 l-16 -31 676 0 676 0
77 -59 c269 -209 611 -381 935 -472 85 -24 89 -25 195 -46 139 -27 148 -29
246 -39 33 -3 78 -8 100 -11 47 -5 366 -5 410 0 17 2 64 7 105 10 41 4 82 9
90 11 8 2 35 7 60 10 63 9 238 49 340 79 195 56 453 171 624 276 45 28 90 56
101 63 11 6 71 50 133 95 l113 84 675 -1 674 -1 -16 33 c-9 17 -64 113 -122
212 -57 99 -118 205 -134 235 -17 30 -34 60 -38 65 -7 10 -182 311 -228 395
-14 25 -30 52 -35 62 -8 12 -2 37 22 99 68 172 140 429 157 557 2 20 7 49 10
66 42 218 37 628 -12 886 -2 14 -7 41 -10 60 -11 64 -62 253 -97 355 -113 334
-291 642 -539 930 -66 77 -241 245 -323 310 -27 22 -52 42 -55 45 -8 9 -71 54
-140 102 -315 218 -745 389 -1114 443 -23 4 -50 8 -61 10 -11 2 -32 4 -47 4
-23 1 -34 14 -79 94 -29 50 -59 100 -67 110 -8 9 -13 17 -10 17 5 0 -21 45
-150 263 l-28 48 -50 -88z m85 -385 l23 -38 -57 0 c-57 0 -57 0 -43 23 8 12
21 32 29 44 15 25 16 24 48 -29z m265 -463 c236 -405 349 -600 379 -655 16
-30 38 -67 49 -82 10 -14 18 -28 18 -31 0 -3 23 -45 52 -94 28 -48 73 -126
100 -173 27 -47 53 -92 58 -100 9 -16 140 -243 170 -295 10 -16 41 -70 70
-120 29 -49 62 -106 72 -125 48 -83 562 -974 673 -1165 67 -115 134 -231 148
-258 15 -26 68 -117 118 -203 l90 -155 -51 -97 c-75 -140 -185 -300 -299 -437
-14 -16 -78 -83 -141 -147 l-116 -118 -1689 0 -1690 0 -125 127 c-183 187
-320 370 -429 575 l-52 97 129 223 c71 123 205 354 297 513 92 160 202 351
245 425 144 250 515 892 710 1230 106 184 231 399 277 478 45 79 83 145 83
148 0 3 8 17 19 32 15 22 205 349 274 472 49 87 71 126 80 138 7 9 52 12 185
10 l175 -3 121 -210z m-744 170 c0 -4 -18 -37 -70 -125 -9 -14 -79 -136 -129
-225 -13 -22 -45 -77 -72 -123 -27 -45 -49 -85 -49 -88 0 -3 -8 -17 -19 -32
-10 -15 -88 -148 -174 -297 -85 -148 -164 -286 -176 -305 -11 -19 -24 -42 -28
-50 -4 -8 -27 -48 -51 -89 -23 -40 -94 -162 -156 -270 -63 -108 -137 -236
-166 -286 -29 -49 -63 -110 -77 -135 -14 -25 -67 -117 -118 -205 -139 -239
-374 -647 -487 -845 -55 -96 -108 -186 -117 -200 -9 -14 -25 -42 -36 -63 -11
-20 -23 -37 -27 -37 -21 0 -90 269 -133 515 -27 156 -26 541 1 715 46 298 139
581 270 830 253 478 661 870 1148 1106 171 82 303 131 491 179 123 32 175 41
175 30z m1060 -29 c251 -64 490 -162 698 -288 554 -333 964 -867 1141 -1484
37 -128 77 -333 87 -454 15 -165 9 -484 -11 -605 -18 -107 -38 -208 -51 -260
-24 -96 -75 -255 -82 -255 -4 0 -32 43 -62 96 -30 54 -66 115 -78 138 -13 23
-33 57 -44 76 -11 19 -81 141 -156 270 -74 129 -152 263 -173 297 -22 35 -39
65 -39 67 0 2 -48 86 -107 187 -58 101 -114 198 -123 214 -38 66 -213 369
-300 520 -51 88 -136 234 -188 325 -119 207 -112 195 -219 380 -315 543 -463
800 -463 805 0 11 40 4 170 -29z m-2990 -3888 c38 -64 156 -238 200 -292 21
-27 141 -167 163 -191 18 -20 18 -20 -172 -23 -105 -1 -276 -1 -381 0 l-189 3
96 165 c109 187 111 192 182 318 29 50 54 92 55 92 2 0 23 -33 46 -72z m4965
-219 l164 -284 -376 -3 c-207 -1 -378 0 -380 2 -3 2 4 13 14 23 70 73 164 187
229 277 13 17 58 86 100 153 43 68 79 121 81 119 2 -2 78 -131 168 -287z
m-1380 -499 l200 0 -65 -42 c-228 -146 -588 -288 -848 -334 -111 -20 -145 -25
-186 -29 -25 -3 -61 -7 -79 -11 -41 -7 -399 -8 -452 -1 -22 4 -65 9 -95 12
-340 38 -736 178 -1030 363 l-65 41 130 3 c72 2 616 2 1210 1 594 -1 1170 -3
1280 -3z"/>
</g>
</svg>
